# xmcd CD database file
#
# Track frame offsets:
#	150
#	18285
#	41245
#	57246
#	71413
#	83457
#	102776
#	126818
#	139635
#	160423
#	177952
#	199557
#	213920
#	227686
#	246763
#	263104
#	283969
#	302196
#	327315
#
# Disc length: 4543 seconds
#
# Revision: 1
# Processed by: cddbd v1.5.2PL0 Copyright (c) Steve Scherf et al.
# Submitted via: CDex 1.70beta2
#
DISCID=0a11bd13
DTITLE=Various Artist - Montecarlo Nights - New Classics 02
DYEAR=2006
DGENRE=Jazz
TTITLE0=Jazzamor - Ain't No Sunshine
TTITLE1=Ana Carolina - Quem De Nos Dois
TTITLE2=Del Amore - Holding Back The Years
TTITLE3=Bellanova - Stairway To Heaven
TTITLE4=Rita Lee - She Loves You
TTITLE5=KD Lang - Helpless
TTITLE6=Randy Crawford - Cajun Moon
TTITLE7=Michael Mcdonald - You Are Everything
TTITLE8=Supernova - Save A Prayer
TTITLE9=Paul Hardcastle - Ventura Highway
TTITLE10=Incognito - Listen To The Music
TTITLE11=Jose Alberto - And I Love Her
TTITLE12=Jazzamor - Space Cowboy
TTITLE13=Radiodervish - Tu Si Na Cosa Grande
TTITLE14=Malia ft Billie Holiday - Solitude
TTITLE15=Patti Cathcart - Let's Stay Togeter
TTITLE16=Senor Coconut and His Orchestra - Smooth Operator
TTITLE17=Oleta Adams - New York State Of Mind
TTITLE18=Etta James - At Last
EXTD=YEAR: 2006
EXTT0=
EXTT1=
EXTT2=
EXTT3=
EXTT4=
EXTT5=
EXTT6=
EXTT7=
EXTT8=
EXTT9=
EXTT10=
EXTT11=
EXTT12=
EXTT13=
EXTT14=
EXTT15=
EXTT16=
EXTT17=
EXTT18=
PLAYORDER=
